<?xml version="1.0" encoding="iso-8859-1"?>
<!-- Generator: Adobe Illustrator 19.0.0, SVG Export Plug-In . SVG Version: 6.00 Build 0)  -->
<svg version="1.1" id="Capa_1" xmlns="http://www.w3.org/2000/svg" xmlns:xlink="http://www.w3.org/1999/xlink" x="0px" y="0px"
	 viewBox="0 0 512 512" style="enable-background:new 0 0 512 512;" xml:space="preserve">
<path style="fill:#FF7956;" d="M131.75,176.75c0-24.853,20.147-45,45-45H256V7.5H7.5V256h124.25V176.75z"/>
<path style="fill:#57A4FF;" d="M256,380.25C256,311.629,311.629,256,380.25,256l0,0v-79.25c0-24.853-20.147-45-45-45h-158.5
	c-24.853,0-45,20.147-45,45v158.5c0,24.853,20.147,45,45,45H256L256,380.25z"/>
<circle style="fill:#91DC5A;" cx="380.25" cy="380.25" r="124.25"/>
<rect x="7.5" y="7.5" style="fill:#FF3F62;" width="30" height="248.5"/>
<path style="fill:#006DF0;" d="M161.75,335.25v-158.5c0-24.853,20.147-45,45-45h-30c-24.853,0-45,20.147-45,45v158.5
	c0,24.853,20.147,45,45,45h30C181.897,380.25,161.75,360.103,161.75,335.25z"/>
<path style="fill:#64C37D;" d="M286,380.25c0-63.544,47.702-115.948,109.25-123.354c-4.917-0.592-9.923-0.896-15-0.896
	C311.629,256,256,311.629,256,380.25S311.629,504.5,380.25,504.5c5.077,0,10.083-0.305,15-0.896
	C333.702,496.198,286,443.794,286,380.25z"/>
<rect x="80.89" y="223.5" width="15" height="15"/>
<rect x="55.89" y="223.5" width="15" height="15"/>
<rect x="30.89" y="223.5" width="15" height="15"/>
<g>
	<rect x="118" y="25" style="fill:#FFFFFF;" width="63.847" height="15"/>
	<rect x="216.85" y="25" style="fill:#FFFFFF;" width="15" height="15"/>
	<rect x="191.85" y="25" style="fill:#FFFFFF;" width="15" height="15"/>
	<path style="fill:#FFFFFF;" d="M362.75,222.333V176.75c0-15.163-12.336-27.5-27.5-27.5H321.5v15h13.75
		c6.893,0,12.5,5.607,12.5,12.5v45.583L362.75,222.333L362.75,222.333z"/>
	<rect x="271.5" y="149.25" style="fill:#FFFFFF;" width="15" height="15"/>
	<rect x="296.5" y="149.25" style="fill:#FFFFFF;" width="15" height="15"/>
</g>
<rect x="149.25" y="256" width="15" height="79.25"/>
<path d="M380.25,248.5c-72.647,0-131.75,59.103-131.75,131.75S307.603,512,380.25,512S512,452.897,512,380.25
	S452.897,248.5,380.25,248.5z M380.25,497c-64.376,0-116.75-52.374-116.75-116.75S315.874,263.5,380.25,263.5
	S497,315.874,497,380.25S444.626,497,380.25,497z"/>
<path d="M315.235,464.869c4.251,3.273,8.783,6.249,13.471,8.844l7.265-13.123c-4.03-2.231-7.928-4.79-11.584-7.605L315.235,464.869z
	"/>
<path d="M364.176,485.791c5.285,0.802,10.693,1.209,16.074,1.209v-15c-4.63,0-9.281-0.35-13.823-1.039L364.176,485.791z"/>
<path d="M338.365,478.439c4.936,2.113,10.072,3.863,15.268,5.201l3.741-14.525c-4.459-1.148-8.869-2.651-13.105-4.465
	L338.365,478.439z"/>
<path d="M308.006,436.744l-11.805,9.254c3.305,4.217,6.958,8.219,10.858,11.897l10.292-10.912
	C313.995,443.817,310.851,440.373,308.006,436.744z"/>
<g>
	<path style="fill:#FFFFFF;" d="M403.109,291.382c4.458,1.147,8.869,2.648,13.108,4.463l5.902-13.789
		c-4.939-2.114-10.078-3.864-15.273-5.201L403.109,291.382z"/>
	<path style="fill:#FFFFFF;" d="M431.779,286.779l-7.263,13.125C453.806,316.11,472,346.897,472,380.25h15
		C487,341.442,465.841,305.627,431.779,286.779z"/>
	<path style="fill:#FFFFFF;" d="M380.25,288.5c4.628,0,9.276,0.349,13.813,1.037l2.25-14.83c-5.28-0.801-10.684-1.207-16.063-1.207
		V288.5z"/>
</g>
<polygon points="15,15 248.5,15 248.5,111.75 263.5,111.75 263.5,0 0,0 0,263.5 111.75,263.5 111.75,248.5 15,248.5 "/>
<path d="M139.25,335.25v-158.5c0-20.678,16.822-37.5,37.5-37.5h158.5c20.678,0,37.5,16.822,37.5,37.5V236h15v-59.25
	c0-28.948-23.551-52.5-52.5-52.5h-158.5c-28.949,0-52.5,23.552-52.5,52.5v158.5c0,28.948,23.551,52.5,52.5,52.5H236v-15h-59.25
	C156.072,372.75,139.25,355.928,139.25,335.25z"/>
<g>
</g>
<g>
</g>
<g>
</g>
<g>
</g>
<g>
</g>
<g>
</g>
<g>
</g>
<g>
</g>
<g>
</g>
<g>
</g>
<g>
</g>
<g>
</g>
<g>
</g>
<g>
</g>
<g>
</g>
</svg>
